<svg width="17" height="17" viewBox="0 0 17 17" fill="none" xmlns="http://www.w3.org/2000/svg">
<path d="M10.8333 2.57895V1M10.8333 2.57895V4.15789M10.8333 2.57895H7.33333M1.5 7.31579V14.4211C1.5 14.8398 1.66389 15.2414 1.95561 15.5375C2.24733 15.8336 2.643 16 3.05556 16H13.9444C14.357 16 14.7527 15.8336 15.0444 15.5375C15.3361 15.2414 15.5 14.8398 15.5 14.4211V7.31579M1.5 7.31579H15.5M1.5 7.31579V4.15789C1.5 3.73913 1.66389 3.33752 1.95561 3.04141C2.24733 2.7453 2.643 2.57895 3.05556 2.57895H4.61111M15.5 7.31579V4.15789C15.5 3.73913 15.3361 3.33752 15.0444 3.04141C14.7527 2.7453 14.357 2.57895 13.9444 2.57895H13.5556M4.61111 1V4.15789" stroke="#888888" stroke-width="1.5" stroke-linecap="round" stroke-linejoin="round"/>
</svg>
