<svg width="23" height="21" viewBox="0 0 23 21" fill="none" xmlns="http://www.w3.org/2000/svg">
<path d="M14.9825 14.7414L21.5961 20.7819C21.6725 20.8517 21.7631 20.907 21.8629 20.9447C21.9627 20.9825 22.0696 21.0019 22.1776 21.0019C22.2856 21.0019 22.3925 20.9825 22.4923 20.9447C22.5921 20.907 22.6828 20.8517 22.7591 20.7819C22.8355 20.7122 22.8961 20.6294 22.9374 20.5383C22.9787 20.4472 23 20.3496 23 20.2509C23 20.1523 22.9787 20.0547 22.9374 19.9636C22.8961 19.8725 22.8355 19.7897 22.7591 19.7199L1.40391 0.219947C1.32754 0.150216 1.23689 0.0949011 1.13711 0.0571624C1.03733 0.0194238 0.93039 7.34745e-10 0.822392 0C0.714394 -7.34745e-10 0.607453 0.0194238 0.507676 0.0571624C0.407899 0.0949011 0.317239 0.150216 0.240873 0.219947C0.164507 0.289679 0.10393 0.372463 0.0626008 0.463572C0.0212718 0.554681 -8.04648e-10 0.652332 0 0.750947C8.04648e-10 0.849563 0.0212718 0.947213 0.0626008 1.03832C0.10393 1.12943 0.164507 1.21222 0.240873 1.28195L5.54682 6.12695C4.82482 6.59426 4.17504 7.14824 3.615 7.77395C2.82222 8.66218 2.20164 9.66768 1.78009 10.7469C1.74559 10.8384 1.70288 10.9644 1.70288 10.9644L1.67331 11.0574C1.67331 11.0574 1.54847 11.8029 2.25648 11.9739C2.4669 12.0247 2.6908 11.9972 2.87899 11.8973C3.06718 11.7975 3.20428 11.6335 3.26017 11.4414L3.26181 11.4369L3.27496 11.3994L3.33245 11.2359C3.69049 10.3247 4.21541 9.47566 4.88481 8.72495C5.41217 8.13532 6.03478 7.62244 6.73122 7.20395L9.32341 9.57095C8.80031 9.87033 8.35786 10.2735 8.02897 10.7506C7.70007 11.2277 7.4932 11.7663 7.42373 12.3264C7.35426 12.8866 7.42399 13.4538 7.62772 13.986C7.83145 14.5181 8.16396 15.0015 8.60049 15.4001C9.03703 15.7987 9.56636 16.1023 10.1491 16.2883C10.7319 16.4744 11.3531 16.538 11.9665 16.4746C12.58 16.4112 13.1698 16.2223 13.6923 15.9219C14.2147 15.6216 14.6563 15.2176 14.9842 14.7399M13.7686 13.6299C13.6111 13.969 13.3649 14.2676 13.0515 14.4995C12.7381 14.7314 12.3672 14.8895 11.9713 14.96C11.5753 15.0304 11.1665 15.011 10.7808 14.9035C10.395 14.7959 10.044 14.6036 9.75862 14.3433C9.47325 14.083 9.26224 13.7627 9.14409 13.4105C9.02595 13.0583 9.00429 12.6851 9.08101 12.3235C9.15774 11.9619 9.33051 11.623 9.58415 11.3366C9.83779 11.0502 10.1645 10.8251 10.5357 10.6809L13.7686 13.6299ZM8.74025 4.80095L10.1431 6.08195C10.5702 6.02795 11.0225 6.00095 11.5 6.00095C14.8577 6.00095 16.8979 7.36895 18.1168 8.72645C18.7862 9.47716 19.3111 10.3262 19.6692 11.2374C19.6966 11.3104 19.7157 11.3649 19.7267 11.4009L19.7398 11.4384V11.4429L19.7415 11.4444C19.8022 11.6316 19.9406 11.7898 20.1271 11.8854C20.3135 11.9809 20.5335 12.0062 20.7401 11.956C20.9468 11.9059 21.1238 11.784 21.2336 11.6165C21.3435 11.449 21.3775 11.249 21.3283 11.0589V11.0544L21.3267 11.0484L21.3201 11.0289C21.2923 10.934 21.2594 10.8404 21.2216 10.7484C20.8 9.66918 20.1794 8.66368 19.3866 7.77545C17.9148 6.13445 15.4359 4.50095 11.5033 4.50095C10.4881 4.50095 9.56982 4.60895 8.74189 4.79945" fill="white"/>
</svg>
