<svg width="20" height="20" viewBox="0 0 20 20" fill="none" xmlns="http://www.w3.org/2000/svg">
<path fill-rule="evenodd" clip-rule="evenodd" d="M8.44525 2.77327C8.44525 2.77327 8.44526 2.77327 8.44525 2.77327L3.44526 5.80326C3.0041 6.0706 2.63931 6.44717 2.38615 6.89662C2.13299 7.34606 1.99999 7.85318 2 8.36902V14.661C2 15.4567 2.31607 16.2198 2.87868 16.7824C3.44129 17.345 4.20435 17.661 5 17.661H6V14.661C6 13.6002 6.42143 12.5828 7.17157 11.8326C7.92172 11.0825 8.93913 10.661 10 10.661C11.0609 10.661 12.0783 11.0825 12.8284 11.8326C13.5786 12.5828 14 13.6002 14 14.661V17.661H15C15.7956 17.661 16.5587 17.345 17.1213 16.7824C17.6839 16.2198 18 15.4567 18 14.661V8.36827C18 8.36819 18 8.36835 18 8.36827C17.9998 7.85264 17.8668 7.34552 17.6137 6.89629C17.3605 6.44699 16.9958 6.07054 16.5548 5.80327L11.5547 2.77327C11.5547 2.77327 11.5548 2.77327 11.5547 2.77327C11.0859 2.48917 10.5482 2.33896 10 2.33896C9.45181 2.33896 8.91408 2.48917 8.44525 2.77327ZM12 17.661V14.661C12 14.1306 11.7893 13.6219 11.4142 13.2468C11.0391 12.8718 10.5304 12.661 10 12.661C9.46957 12.661 8.96086 12.8718 8.58579 13.2468C8.21071 13.6219 8 14.1306 8 14.661V17.661H12ZM7.40875 1.06281C8.19014 0.589307 9.08634 0.338959 10 0.338959C10.9137 0.338959 11.8099 0.589307 12.5913 1.06281L17.5912 4.09281C17.5912 4.09281 17.5913 4.09282 17.5912 4.09281C18.3263 4.53826 18.9342 5.16568 19.3561 5.91451C19.778 6.66334 19.9998 7.50829 20 8.36781V14.661C20 15.9871 19.4732 17.2589 18.5355 18.1966C17.5979 19.1343 16.3261 19.661 15 19.661H5C3.67392 19.661 2.40215 19.1343 1.46447 18.1966C0.526784 17.2589 6.92344e-10 15.9871 6.92344e-10 14.661V8.36906C6.92344e-10 8.36906 6.92344e-10 8.36907 6.92344e-10 8.36906C-1.43044e-05 7.50934 0.221649 6.66412 0.643585 5.91505C1.06552 5.16599 1.67348 4.53838 2.40874 4.09282C2.40873 4.09282 2.40874 4.09282 2.40874 4.09282L7.40875 1.06281Z" fill="white"/>
</svg>
