<svg width="20" height="20" viewBox="0 0 20 20" fill="none" xmlns="http://www.w3.org/2000/svg">
<path fill-rule="evenodd" clip-rule="evenodd" d="M8.44525 2.43431L3.44526 5.4643C3.0041 5.73164 2.63931 6.10822 2.38615 6.55766C2.13299 7.0071 1.99999 7.51422 2 8.03006V14.3221C2 15.1177 2.31607 15.8808 2.87868 16.4434C3.44129 17.006 4.20435 17.3221 5 17.3221H6V14.3221C6 13.2612 6.42143 12.2438 7.17157 11.4937C7.92172 10.7435 8.93913 10.3221 10 10.3221C11.0609 10.3221 12.0783 10.7435 12.8284 11.4937C13.5786 12.2438 14 13.2612 14 14.3221V17.3221H15C15.7956 17.3221 16.5587 17.006 17.1213 16.4434C17.6839 15.8808 18 15.1177 18 14.3221V8.02931C17.9998 7.51368 17.8668 7.00656 17.6137 6.55733C17.3605 6.10803 16.9958 5.73158 16.5548 5.46431L11.5547 2.43431C11.0859 2.15021 10.5482 2 10 2C9.45181 2 8.91408 2.15021 8.44525 2.43431ZM12 17.3221V14.3221C12 13.7916 11.7893 13.2829 11.4142 12.9079C11.0391 12.5328 10.5304 12.3221 10 12.3221C9.46957 12.3221 8.96086 12.5328 8.58579 12.9079C8.21071 13.2829 8 13.7916 8 14.3221V17.3221H12ZM7.40875 0.723854C8.19014 0.250348 9.08634 0 10 0C10.9137 0 11.8099 0.250348 12.5913 0.723854L17.5912 3.75385C18.3263 4.1993 18.9342 4.82672 19.3561 5.57555C19.778 6.32438 19.9998 7.16934 20 8.02885V14.3221C20 15.6482 19.4732 16.9199 18.5355 17.8576C17.5979 18.7953 16.3261 19.3221 15 19.3221H5C3.67392 19.3221 2.40215 18.7953 1.46447 17.8576C0.526784 16.9199 6.92344e-10 15.6482 6.92344e-10 14.3221V8.0301C-1.43044e-05 7.17038 0.221649 6.32516 0.643585 5.57609C1.06552 4.82703 1.67348 4.19942 2.40874 3.75386L7.40875 0.723854Z" fill="#2E3332"/>
</svg>
