<svg width="25" height="16" viewBox="0 0 25 16" fill="none" xmlns="http://www.w3.org/2000/svg">
<path d="M1 9.27778C5.6 -0.944441 19.4 -0.944441 24 9.27778" stroke="#2E3332" stroke-width="1.5" stroke-linecap="round" stroke-linejoin="round"/>
<path d="M12.5 14.3889C11.9966 14.3889 11.4981 14.2897 11.0331 14.0971C10.568 13.9045 10.1454 13.6221 9.78943 13.2661C9.43347 12.9102 9.15111 12.4876 8.95847 12.0225C8.76582 11.5574 8.66667 11.059 8.66667 10.5556C8.66667 10.0522 8.76582 9.55369 8.95847 9.08861C9.15111 8.62353 9.43347 8.20094 9.78943 7.84499C10.1454 7.48903 10.568 7.20667 11.0331 7.01402C11.4981 6.82138 11.9966 6.72223 12.5 6.72223C13.5167 6.72223 14.4917 7.1261 15.2106 7.84499C15.9295 8.56388 16.3333 9.5389 16.3333 10.5556C16.3333 11.5722 15.9295 12.5472 15.2106 13.2661C14.4917 13.985 13.5167 14.3889 12.5 14.3889Z" stroke="#2E3332" stroke-width="1.5" stroke-linecap="round" stroke-linejoin="round"/>
</svg>
